<?xml version="1.0" standalone="no"?>
<!DOCTYPE svg PUBLIC "-//W3C//DTD SVG 20010904//EN"
 "http://www.w3.org/TR/2001/REC-SVG-20010904/DTD/svg10.dtd">
<svg version="1.0" xmlns="http://www.w3.org/2000/svg"
 width="1080.000000pt" height="1080.000000pt" viewBox="0 0 1080.000000 1080.000000"
 preserveAspectRatio="xMidYMid meet">

<g transform="translate(0.000000,1080.000000) scale(0.100000,-0.100000)"
fill="#000000" stroke="none">
<path d="M3385 4970 c-4 -6 6 -10 24 -10 16 0 33 -4 36 -10 3 -5 -17 -92 -45
-193 -66 -242 -65 -283 7 -275 23 2 34 14 61 66 22 41 29 62 20 62 -7 0 -24
-21 -38 -47 -28 -53 -50 -67 -50 -31 0 13 25 113 55 223 30 110 55 206 55 213
0 15 -116 17 -125 2z"/>
<path d="M6400 4970 c0 -5 13 -10 29 -10 40 0 43 -9 27 -66 -8 -27 -20 -69
-26 -93 l-11 -43 -21 22 c-28 30 -89 23 -128 -15 -36 -35 -72 -108 -78 -161
-9 -83 16 -124 75 -124 28 0 43 8 69 36 29 30 34 32 34 16 0 -56 48 -72 88
-29 18 19 52 85 52 102 0 18 -20 -1 -35 -35 -21 -48 -42 -67 -55 -54 -8 8 35
186 107 447 5 15 -3 17 -61 17 -37 0 -66 -4 -66 -10z m-19 -212 c33 -61 -48
-258 -106 -258 -31 0 -39 44 -21 116 34 133 95 202 127 142z"/>
<path d="M8250 4970 c0 -5 13 -10 29 -10 17 0 32 -4 35 -8 3 -5 -17 -89 -44
-188 -63 -227 -65 -284 -11 -284 32 0 64 30 86 82 18 44 19 51 5 46 -5 -1 -20
-23 -32 -48 -13 -25 -31 -47 -41 -48 -23 -5 -24 -5 49 261 30 108 54 200 54
202 0 3 -29 5 -65 5 -37 0 -65 -4 -65 -10z"/>
<path d="M3234 4946 c-12 -31 1 -51 33 -54 25 -2 33 1 38 18 4 12 1 27 -5 35
-16 19 -59 19 -66 1z"/>
<path d="M3830 4908 c-20 -85 -37 -118 -59 -118 -12 0 -21 -4 -21 -10 0 -5 10
-10 21 -10 16 0 20 -5 16 -17 -64 -224 -63 -273 4 -273 31 0 56 21 70 57 31
82 15 102 -18 23 -20 -46 -43 -64 -57 -42 -3 5 9 63 27 130 l32 122 37 0 c20
0 40 5 43 10 4 6 -8 10 -29 10 -42 0 -44 10 -21 86 21 70 20 84 -9 84 -21 0
-26 -7 -36 -52z"/>
<path d="M6840 4908 c-20 -85 -37 -118 -59 -118 -12 0 -21 -4 -21 -10 0 -5 9
-10 20 -10 25 0 25 7 -5 -100 -27 -97 -32 -159 -13 -178 7 -7 26 -12 44 -12
26 0 36 7 52 33 23 37 38 97 25 97 -5 0 -19 -22 -30 -50 -20 -46 -43 -64 -57
-42 -3 5 9 63 27 130 l32 122 37 0 c20 0 40 5 43 10 4 6 -8 10 -29 10 -42 0
-44 10 -21 86 21 70 20 84 -9 84 -21 0 -26 -7 -36 -52z"/>
<path d="M2119 4777 c-74 -50 -118 -206 -76 -271 14 -21 25 -26 58 -26 32 0
46 6 69 32 31 33 29 34 45 -17 6 -21 58 -19 77 3 15 17 58 96 58 107 0 3 -4 5
-10 5 -5 0 -20 -21 -31 -46 -21 -44 -43 -64 -56 -50 -5 5 46 215 63 261 5 11
-2 15 -25 15 -22 0 -31 -5 -31 -17 0 -14 -3 -13 -23 5 -30 28 -75 28 -118 -1z
m102 -18 c37 -69 -66 -287 -119 -252 -37 23 -10 167 45 241 28 37 57 41 74 11z"/>
<path d="M2442 4777 c-21 -22 -52 -86 -52 -107 0 -25 18 -6 37 40 19 45 46 71
59 57 3 -3 -10 -65 -29 -138 -20 -73 -33 -137 -31 -141 3 -4 14 -8 24 -8 13 0
22 12 31 38 18 58 85 185 114 220 27 32 65 43 65 20 0 -7 -14 -44 -31 -83 -53
-124 -49 -195 10 -195 20 0 37 9 53 29 30 35 53 89 43 99 -4 4 -9 3 -12 -3
-14 -38 -51 -90 -66 -93 -25 -5 -22 25 13 106 31 74 39 149 18 170 -13 13 -47
16 -73 6 -9 -4 -32 -30 -51 -58 l-34 -51 0 46 c0 25 -5 50 -12 57 -19 19 -53
14 -76 -11z"/>
<path d="M2883 4778 c-76 -54 -121 -208 -80 -272 24 -37 80 -36 119 1 33 32
35 22 7 -52 -28 -74 -63 -115 -99 -115 -27 0 -29 2 -27 43 2 36 -1 42 -20 45
-32 5 -48 -31 -33 -69 23 -54 113 -58 167 -7 44 41 62 83 111 261 l49 177 -28
0 c-20 0 -29 -5 -29 -17 0 -14 -3 -13 -23 5 -30 28 -74 28 -114 0z m91 -14
c21 -21 20 -58 -4 -130 -35 -103 -108 -168 -125 -113 -15 48 26 192 67 237 25
26 41 28 62 6z"/>
<path d="M3163 4778 c-38 -42 -67 -118 -45 -118 4 0 19 24 33 52 26 56 59 77
59 38 0 -12 -13 -53 -30 -92 -46 -107 -38 -178 19 -178 15 0 35 8 43 18 24 26
60 103 53 110 -7 7 -20 -8 -47 -57 -17 -31 -43 -49 -55 -37 -4 3 10 46 30 96
38 92 45 137 27 171 -15 26 -61 25 -87 -3z"/>
<path d="M4053 4780 c-65 -39 -109 -143 -93 -216 13 -57 45 -84 99 -84 40 0
49 5 91 48 74 77 90 187 35 246 -30 32 -86 35 -132 6z m97 -19 c33 -63 -37
-261 -94 -261 -23 0 -46 29 -46 60 0 15 9 57 20 93 32 105 92 158 120 108z"/>
<path d="M4327 4789 c-22 -13 -70 -106 -61 -120 4 -6 18 10 33 37 27 48 54 74
67 61 4 -4 -9 -47 -29 -97 -55 -134 -47 -195 23 -188 28 2 42 12 70 51 l35 47
5 -37 c8 -51 16 -63 46 -63 31 0 66 36 87 90 13 34 13 40 1 40 -8 0 -14 -6
-14 -13 0 -17 -48 -87 -60 -87 -16 0 -12 33 20 153 17 63 30 117 30 121 0 3
-11 6 -24 6 -19 0 -27 -8 -37 -37 -19 -61 -85 -186 -112 -215 -25 -27 -51 -36
-61 -20 -2 4 11 43 29 87 35 82 43 141 25 176 -12 21 -45 24 -73 8z"/>
<path d="M4723 4794 c-14 -6 -47 -57 -62 -96 -17 -44 7 -45 25 -1 18 42 42 73
57 73 13 0 2 -62 -28 -172 -31 -109 -31 -120 -3 -116 18 2 28 19 53 88 36 99
84 192 103 198 11 3 11 1 0 -17 -11 -18 -10 -23 5 -38 19 -19 41 -12 61 19 17
28 -8 68 -44 68 -24 0 -36 -9 -60 -42 -25 -34 -30 -37 -30 -19 0 49 -33 72
-77 55z"/>
<path d="M5050 4787 c-13 -7 -30 -24 -37 -37 -24 -47 -16 -71 42 -125 60 -55
69 -84 33 -109 -26 -18 -61 -20 -89 -6 -23 13 -24 26 -4 47 18 18 16 32 -7 47
-23 14 -48 -9 -48 -46 0 -76 116 -108 180 -50 16 15 33 42 36 59 7 34 -9 55
-89 120 -32 27 -34 46 -7 73 21 21 56 26 80 10 12 -8 13 -13 3 -30 -19 -29
-16 -48 7 -55 49 -16 67 49 25 90 -27 28 -83 33 -125 12z"/>
<path d="M5514 4768 c-109 -96 -113 -288 -7 -288 28 0 43 8 69 35 l33 35 3
-26 c4 -33 27 -49 60 -41 34 9 99 127 70 127 -5 0 -17 -18 -27 -40 -10 -22
-24 -45 -32 -52 -29 -24 -30 10 -4 112 15 58 31 117 34 133 7 24 5 27 -18 27
-17 0 -29 -7 -35 -22 -5 -13 -9 -18 -9 -11 -2 23 -33 43 -66 43 -24 0 -45 -9
-71 -32z m106 -3 c32 -39 -22 -216 -77 -252 -43 -28 -56 -11 -50 65 10 131 84
239 127 187z"/>
<path d="M5850 4780 c-31 -31 -63 -101 -52 -112 7 -7 17 5 29 33 21 47 49 77
61 65 4 -4 -8 -64 -26 -134 -19 -70 -34 -131 -35 -137 -1 -5 9 -10 22 -10 19
0 27 8 38 40 39 116 122 245 157 245 23 0 20 -22 -14 -103 -55 -129 -35 -211
44 -181 17 7 49 53 65 97 8 21 8 27 -4 27 -7 0 -17 -10 -21 -22 -10 -35 -44
-78 -60 -78 -21 0 -17 20 17 101 50 117 42 189 -21 189 -28 0 -63 -31 -101
-89 -15 -24 -15 -24 -11 11 8 70 -42 104 -88 58z"/>
<path d="M7013 4778 c-29 -32 -55 -86 -51 -106 2 -11 14 2 33 37 61 111 72 66
25 -99 -36 -128 -36 -130 -6 -130 20 0 27 10 46 68 28 83 78 187 99 206 14 13
16 11 16 -17 0 -21 5 -33 16 -35 24 -5 51 27 47 56 -7 57 -73 54 -110 -5 l-23
-38 -3 30 c-2 17 -8 36 -14 43 -16 19 -52 14 -75 -10z"/>
<path d="M7349 4777 c-75 -50 -118 -206 -76 -270 26 -40 84 -38 125 4 l30 30
10 -30 c9 -25 17 -31 40 -31 33 0 51 17 81 77 24 48 25 53 11 53 -5 0 -21 -22
-35 -50 -23 -46 -55 -68 -55 -37 0 6 15 69 34 140 l34 127 -29 0 c-20 0 -29
-5 -29 -17 0 -14 -3 -13 -23 5 -30 28 -75 28 -118 -1z m96 -14 c46 -46 -42
-263 -106 -263 -51 0 -26 161 38 248 27 36 44 40 68 15z"/>
<path d="M7667 4789 c-22 -13 -70 -106 -61 -120 4 -6 18 10 33 37 27 48 54 74
67 61 4 -4 -9 -47 -29 -97 -41 -98 -45 -134 -21 -168 18 -26 70 -30 114 -7 79
41 146 218 106 280 -21 32 -62 34 -72 3 -5 -17 0 -28 27 -50 l33 -28 -18 -55
c-21 -69 -89 -145 -128 -145 -14 0 -28 6 -31 13 -3 7 10 49 29 93 34 81 42
140 24 175 -12 21 -45 24 -73 8z"/>
<path d="M8045 4789 c-104 -59 -146 -211 -79 -284 47 -51 139 -22 179 56 24
45 -1 45 -29 0 -60 -94 -142 -73 -122 32 6 32 11 36 46 42 49 8 101 42 118 78
11 22 11 32 0 55 -11 22 -21 27 -53 29 -22 2 -49 -2 -60 -8z m73 -41 c2 -15
-2 -36 -8 -47 -11 -21 -85 -49 -97 -38 -3 4 2 25 12 48 31 69 87 91 93 37z"/>
<path d="M8489 4771 c-21 -22 -29 -39 -29 -66 0 -37 15 -58 71 -100 38 -28 45
-59 20 -84 -25 -25 -83 -28 -106 -5 -14 15 -14 18 0 33 29 33 14 68 -24 56
-37 -11 -32 -82 7 -111 23 -18 97 -17 132 1 35 18 50 43 50 82 0 34 -10 48
-67 92 -49 37 -56 71 -21 95 27 19 48 20 72 3 16 -11 16 -17 6 -34 -18 -28 -6
-55 22 -51 18 2 24 10 26 39 3 30 -2 41 -24 58 -41 32 -98 28 -135 -8z"/>
</g>
</svg>
